<svg width="200" height="200" viewBox="0 0 200 200" fill="none" xmlns="http://www.w3.org/2000/svg">
  <path d="M50 40C50 40 70 20 100 20C130 20 150 40 150 40L140 60C140 60 125 45 100 45C75 45 60 60 60 60L50 40Z" fill="#4A5568"/>
  <path d="M150 160C150 160 130 180 100 180C70 180 50 160 50 160L60 140C60 140 75 155 100 155C125 155 140 140 140 140L150 160Z" fill="#4A5568"/>
  <circle cx="100" cy="100" r="30" fill="none" stroke="#4A5568" stroke-width="8"/>
  <circle cx="100" cy="100" r="15" fill="none" stroke="#4A5568" stroke-width="6"/>
</svg>
